<?xml version="1.0" standalone="no"?><!DOCTYPE svg PUBLIC "-//W3C//DTD SVG 1.1//EN" "http://www.w3.org/Graphics/SVG/1.1/DTD/svg11.dtd"><svg t="1612939532069" class="icon" viewBox="0 0 1024 1024" version="1.1" xmlns="http://www.w3.org/2000/svg" p-id="3799" xmlns:xlink="http://www.w3.org/1999/xlink" width="200" height="200"><defs><style type="text/css"></style></defs><path d="M 721.51 901.12 h -109.773 c -25.6 0 -46.4896 -20.8896 -46.4896 -46.4896 V 593.51 h -126.566 v 261.12 c 0 25.6 -20.8896 46.4896 -46.4896 46.4896 h -109.773 c -37.6832 0 -68.608 -30.72 -68.608 -68.608 V 549.683 H 157.286 A 46.6125 46.6125 0 1 1 123.494 471.04 L 420.045 157.901 C 441.549 135.373 470.63 122.88 501.76 122.88 s 60.2112 12.4928 81.7152 35.0208 L 880.026 471.04 c 12.9024 13.5168 16.384 33.3824 9.0112 50.3808 s -24.1664 28.2624 -42.8032 28.2624 h -56.1152 v 283.034 A 68.8333 68.8333 0 0 1 721.51 901.12 Z m -107.315 -49.152 h 107.315 c 10.6496 0 19.456 -8.6016 19.456 -19.456 V 547.021 c 0 -25.6 20.8896 -46.4896 46.4896 -46.4896 h 52.6336 L 547.635 191.898 c -24.1664 -25.6 -67.7888 -25.6 -91.9552 0 L 163.43 500.531 h 52.6336 c 25.6 0 46.4896 20.8896 46.4896 46.4896 v 285.696 c 0 10.6496 8.6016 19.456 19.456 19.456 h 107.315 V 590.848 c 0 -25.6 20.8896 -46.4896 46.4896 -46.4896 h 131.891 c 25.6 0 46.4896 20.8896 46.4896 46.4896 V 851.968 Z" p-id="3800"></path></svg>